# xmcd
#
# Track frame offsets:
#  150
#  16622
#  37669
#  50369
#  70054
#  95547
#  109628
#  114256
#  128436
#  142601
#  154539
#  181523
#  200200
#  215624
#  243987
#  262907
#  281915
#  313505
#
# Disc length: 4554 seconds
#
# Revision: 0
# Processed by: cddbd v1.5.2PL0 Copyright (c) Steve Scherf et al.
# Submitted via: AltoMP3_Maker 3.0
#
DISCID=e011c812
DTITLE=Tom Russell - The Western Years, disc 2
DYEAR=1900
DGENRE=
TTITLE0=Dance Hall Girls
TTITLE1=El Llano Estacado
TTITLE2=The Man from God Knows Where part 1
TTITLE3=Patrick Russell
TTITLE4=Down the Rio Grande (aka Rio Grande)
TTITLE5=Prairie in the Sky
TTITLE6=Casey Jones
TTITLE7=Stealing Electricity
TTITLE8=Racehorse Haynes
TTITLE9=Gulf Coast Highway
TTITLE10=Bacon Rind, Chief Seattle, The Ballad of Ira Hayes
TTITLE11=The Santa Fe at Midnight
TTITLE12=The Ballad of Sally Rose
TTITLE13=American Rivers
TTITLE14=Santa Ana Wind
TTITLE15=Navajo Rug (Live)
TTITLE16=El Gallo del Cielo (Live)
TTITLE17=The Sky Above, the Mud Below (Live)
EXTD=
EXTT0=
EXTT1=
EXTT2=
EXTT3=
EXTT4=
EXTT5=
EXTT6=
EXTT7=
EXTT8=
EXTT9=
EXTT10=
EXTT11=
EXTT12=
EXTT13=
EXTT14=
EXTT15=
EXTT16=
EXTT17=
PLAYORDER=
